<svg xmlns="http://www.w3.org/2000/svg" viewBox="0 0 301.9644 70.6987"><defs><style>.cls-1{fill:#231f20;}</style></defs><g id="Layer_2" data-name="Layer 2"><g id="Layer_1-2" data-name="Layer 1"><path class="cls-1" d="M0,63.2161a7.24,7.24,0,0,1,7.3027-7.4842c3.9638,0,6.0067,2.4267,6.5736,4.7539l-2.6307.8287A3.749,3.749,0,0,0,7.3027,58.422a4.4182,4.4182,0,0,0-4.41,4.7941,4.4234,4.4234,0,0,0,4.45,4.733,3.9839,3.9839,0,0,0,4.0248-2.9326l2.61.7886a6.5223,6.5223,0,0,1-6.6346,4.8743A7.1609,7.1609,0,0,1,0,63.2161Z"/><path class="cls-1" d="M26.2182,55.7319a7.4743,7.4743,0,0,1,0,14.9475,7.4746,7.4746,0,0,1,0-14.9475Zm0,12.2365a4.4263,4.4263,0,0,0,4.4905-4.7732,4.4891,4.4891,0,1,0-8.96,0A4.423,4.423,0,0,0,26.2182,67.9684Z"/><path class="cls-1" d="M43.2624,64.8543H41.8057v5.5216H38.9935v-14.34H44.597a4.302,4.302,0,0,1,4.5709,4.4086,4.0694,4.0694,0,0,1-3.0548,4.0666l3.0756,5.8653H46.073Zm.8078-2.4075a2.0066,2.0066,0,1,0,0-3.9846H41.8057v3.9846Z"/><path class="cls-1" d="M58.15,64.9747v5.4012H55.3583v-14.34h5.361a4.4759,4.4759,0,1,1,0,8.9393Zm2.226-2.4058a2.0614,2.0614,0,1,0,0-4.1067H58.1705v4.1067Z"/><path class="cls-1" d="M76.4833,55.5956A7.4746,7.4746,0,1,1,69.1212,63.08,7.2317,7.2317,0,0,1,76.4833,55.5956Zm0,12.2366a4.4264,4.4264,0,0,0,4.4906-4.7732,4.4891,4.4891,0,1,0-8.96,0A4.4229,4.4229,0,0,0,76.4833,67.8322Z"/><path class="cls-1" d="M92.8487,64.8543H91.392v5.5216H88.58v-14.34h5.6035a4.3019,4.3019,0,0,1,4.5709,4.4086,4.0694,4.0694,0,0,1-3.0548,4.0666l3.0756,5.8653H95.6593Zm.8078-2.4075a2.0066,2.0066,0,1,0,0-3.9846H91.392v3.9846Z"/><path class="cls-1" d="M113.0612,67.1h-5.8251l-1.1933,3.2764h-2.9536l5.5024-14.34h3.2362l5.4606,14.34h-3.0339Zm-4.8952-2.5488h3.9653L110.15,59.13Z"/><path class="cls-1" d="M126.629,58.6854V70.3759h-2.8107v-11.69h-4.5322v-2.65H131.16v2.65Z"/><path class="cls-1" d="M135.4431,70.3759v-14.34h8.9811v2.6291h-6.19v3.2764h5.6036v2.4878h-5.6036v3.3181h6.19v2.6291Z"/><path class="cls-1" d="M162.4322,70.3759v-14.34h8.9811v2.6291h-6.19v3.2764h5.6036v2.4878h-5.6036v3.3181h6.19v2.6291Z"/><path class="cls-1" d="M177.4729,70.3759v-14.34h5.1378c4.0858,0,7.0795,2.65,7.0795,7.1807s-3.0146,7.16-7.0988,7.16Zm5.0174-2.589c2.3448,0,4.3074-1.4567,4.3074-4.5708,0-3.1158-1.9417-4.5917-4.2882-4.5917h-2.2452v9.1625Z"/><path class="cls-1" d="M194.8943,65.2992V56.0354h2.7914v9.0614a2.7239,2.7239,0,1,0,5.44,0V56.0354h2.7913v9.2638c0,3.5188-2.4476,5.4-5.5216,5.4C197.342,70.6987,194.8943,68.818,194.8943,65.2992Z"/><path class="cls-1" d="M210.9647,63.2161a7.24,7.24,0,0,1,7.3028-7.4842c3.9637,0,6.0066,2.4267,6.5736,4.7539l-2.6307.8287a3.749,3.749,0,0,0-3.9429-2.8925,4.4182,4.4182,0,0,0-4.41,4.7941,4.4234,4.4234,0,0,0,4.45,4.733,3.9837,3.9837,0,0,0,4.0248-2.9326l2.61.7886a6.5226,6.5226,0,0,1-6.6347,4.8743A7.1609,7.1609,0,0,1,210.9647,63.2161Z"/><path class="cls-1" d="M239.0143,67.1h-5.8252l-1.1933,3.2764h-2.9535l5.5023-14.34h3.2362l5.4606,14.34h-3.0338Zm-4.8953-2.5488h3.9654l-1.9819-5.42Z"/><path class="cls-1" d="M253.1536,58.6854V70.3759h-2.8122v-11.69h-4.5291v-2.65h11.872v2.65Z"/><path class="cls-1" d="M263.152,70.3759v-14.34h2.8315v14.34Z"/><path class="cls-1" d="M278.6337,55.7319a7.4746,7.4746,0,1,1-7.3622,7.4842A7.2316,7.2316,0,0,1,278.6337,55.7319Zm0,12.2365a4.4263,4.4263,0,0,0,4.49-4.7732,4.4891,4.4891,0,1,0-8.96,0A4.423,4.423,0,0,0,278.6337,67.9684Z"/><path class="cls-1" d="M299.0318,70.3759l-6.5126-10.1744V70.3759h-2.7913v-14.34h3.4787l5.9681,9.4854V56.0354h2.79v14.34Z"/><path class="cls-1" d="M285.1788,39.6448V24.8269h14.65v-8.052h-14.706V8.3875h16.719V0H276.288V39.6448Zm-23.485,0V31.2573H245.3662V23.6527h14.762V15.88h-14.762V8.3316h16.2717V0H236.5314V39.6448ZM195.936.0559,187.94,39.533h7.2132L203.2052.0559ZM159.59,8.4434V0H126.32V8.4434h12.19V39.6448h8.8348V8.4434ZM122.63,39.6448V31.2014h-17.11V0H96.6842V39.6448ZM65.1473,40.54C73.87,40.54,80.86,35.2833,80.86,25.33V0H72.025V24.6033c0,4.8088-2.6839,7.2132-6.8777,7.2132S58.27,29.4121,58.27,24.6033V0H49.4348V25.33c0,9.9531,6.99,15.2093,15.7125,15.2093M33.61,39.6448V0H24.72V15.5448H8.8953V0H.0605V39.6448H8.8953V23.8763H24.72V39.6448Z"/></g></g></svg>